<svg xmlns="http://www.w3.org/2000/svg" viewBox="0 0 307.55 276.27"><g id="blueFlower"><g id="bluePetal1"><path d="M135.16,42.29c-2.8,5.55-5.92,11.28-9.22,17.11l-5,8.81-1.29,2.22-.61,1-.13.22-.57.91.59,1.13,2.93,5.17,6.12,10.69Q131,94.87,134.05,100l3.06,5,.39.61.05.09,0,0,0,0,.18.2.35.34.19.16,1-.3,0,0,.34,0,.77,0,1.54-.07,3.09-.13,12.47-.42,12.59-.31,6.1-.12.2-.09,0-.22,3-5.31q3.13-5.47,6.24-10.94l9.12-15.84h.83c.84,0,1.58.32,2.21,0a.1.1,0,0,0,.06-.08c0-.36,0-.68.05-1l0-.5,0-.25a.74.74,0,0,0,0-.36,11.55,11.55,0,0,1-.57-3.45,2.59,2.59,0,0,1,1.62-2.53c.39-.22,1.42,1.57,2.29,3.06l.58,1a3.35,3.35,0,0,0,.35.51c.19.22.3.19.24-.37.7,1.2,1.51,2.57,2.35,3.94-.67,1.24-1.32,2.48-1.88,3.6l-.86,1.73c-.29.59-.53,1.11-.72,1.54-.74,1.73-.57,2,1.36-.64a7.08,7.08,0,0,0,.89-1c.3-.4.64-.89,1-1.44.71-1.09,1.5-2.42,2.3-3.77-.8-1.45-1.6-2.91-2.23-4.23a11.22,11.22,0,0,1-1.14-3.32c-.2-3.07,3.74,1,3.54-2-1.38-2.4-4.14-7.17-5.52-9.56-.59-2.84,3.74,1,2.36-1.36-3.35-7.62-9.26-17-14.77-26.49.79-.46.19-3.31,3.34,1.24l27,45.76q-15.24,26.94-30.55,54l-18.69.13-12.5.13-12.51.11-19,.11L110.5,99.94,94.59,72.6C111,44.06,109.78,46.2,126.25,17.84l17.92.07,11.27.09,22.48.26c11,.46,2.75,2.27-5.52,3.63,2.76-.45,2.76.91,5.52.46,0,1.36-5.52,3.63-16.55,4.08h8.27c2.76.46,0,1.37,0,2.27-2.76,0-5.51,0-5.51.46V31h11c-2.76,0-5.52,0-5.52.46v1.81c-5.51.46-13.78-.45-19.3,0v1.37c5.52.45,13.79,0,19.3,0-2.76.45-2.76.9-2.76,1.81-8.27.46-16.54-.91-24.81.46h8.27A23.45,23.45,0,0,1,142.8,38c-.76,0-1.56,0-2.37,0h-1.05l-.29,0c-.39,0-.82-.09-1.27-.15a12.44,12.44,0,0,0-.78,1.05l-.19.3c-.2.36-.41.71-.6,1.06C135.85,41,135.49,41.65,135.16,42.29Z" fill="#0024ae"/></g><g id="bluePetal2"><path d="M236.2,81.08c-6.21.35-12.73.51-19.43.57l-10.16,0h-4l-1.07,0-.69,1.09c-1,1.7-2,3.41-3,5.11l-6.19,10.65c-2,3.52-4,7-5.91,10.48l-2.8,5.15-.34.64,0,.09v0l0,.07-.08.25c0,.17-.09.33-.12.47l0,.25c.29.29.55.54.77.74l0,0,.19.28.41.65.83,1.3,1.66,2.61c2.18,3.51,4.39,7,6.6,10.59s4.37,7.15,6.56,10.75l3.15,5.22.18.13.22-.07,6.1,0,12.59-.07,18.28,0h0a7.94,7.94,0,0,1,.41.73c.41.73.52,1.52,1.11,1.91a.11.11,0,0,0,.1,0l.86-.43.45-.22.23-.11c.08-.06.12,0,.29-.21a11.47,11.47,0,0,1,2.7-2.22,2.59,2.59,0,0,1,3,.14c.39.22-.64,2-1.51,3.51l-.57,1a4.2,4.2,0,0,0-.26.56c-.1.27,0,.36.44,0-.69,1.2-1.47,2.59-2.23,4-1.41,0-2.81.09-4.07.16l-1.92.13c-.65,0-1.23.09-1.69.15-1.87.21-2,.5,1.23.85a6.67,6.67,0,0,0,1.32.26c.5.06,1.09.11,1.75.14,1.3.07,2.85.08,4.42.11.85-1.42,1.72-2.85,2.54-4.05a11.11,11.11,0,0,1,2.31-2.65c2.56-1.71,1,3.75,3.54,2.05,1.38-2.4,4.14-7.17,5.52-9.56,2.16-1.93,1,3.75,2.36,1.36,4.92-6.71,10-16.49,15.55-26,.79.46,3-1.48.59,3.52q-13,23-26.13,46.26l-62.07.56-9.46-16.12-6.36-10.76-6.35-10.77-9.58-16.39q7.78-13.68,15.59-27.35T189.66,61.1c32.93-.05,30.46,0,63.25,0l8.9,15.55q2.79,4.91,5.56,9.81l11,19.59c5.12,9.78-.59,3.52-5.9-3,1.77,2.16.59,2.84,2.36,5-1.18.68-5.9-3-11.81-12.29l4.14,7.16c1,2.62-1.18.69-2,1.14-1.38-2.39-2.76-4.78-3.15-4.55l-1.57.91c1.38,2.38,4.13,7.16,5.51,9.55-1.38-2.39-2.75-4.78-3.15-4.55l-1.57.91c-3.15-4.55-6.5-12.17-9.65-16.72l-1.18.68c2.36,5,6.89,11.94,9.65,16.72-1.77-2.16-2.17-1.94-2.95-1.48-4.53-6.94-7.49-14.78-12.8-21.26l4.13,7.16a23.18,23.18,0,0,1-4.75-6c-.4-.65-.81-1.33-1.21-2l-.52-.92-.13-.26c-.17-.36-.33-.76-.51-1.18-.41-.06-.86-.12-1.3-.15h-1.57C237.68,81,236.92,81.05,236.2,81.08Z" fill="#0024ae"/></g><g id="bluePetal3"><path d="M82.54,150.72c6.21-.34,12.73-.5,19.43-.57l10.15,0h4l1.07,0,.68-1.08,3-5.12,6.2-10.64c2-3.53,4-7,5.91-10.49l2.79-5.14.34-.64.05-.09v0l0-.06.09-.26a4.64,4.64,0,0,0,.12-.47l0-.25c-.29-.29-.55-.53-.77-.74l-.05,0s-.12-.2-.18-.28l-.41-.65-.83-1.3-1.66-2.62c-2.19-3.5-4.39-7-6.6-10.58L119.42,89l-3.14-5.23-.19-.13-.21.07-6.1.06-12.59.06-18.28,0h0c-.13-.21-.28-.45-.42-.72-.41-.73-.51-1.53-1.1-1.92a.17.17,0,0,0-.1,0l-.86.43-.45.22-.23.11a.53.53,0,0,0-.29.21,12.23,12.23,0,0,1-2.7,2.22,2.6,2.6,0,0,1-3-.14c-.39-.23.64-2,1.5-3.51l.57-1a3.84,3.84,0,0,0,.27-.56c.09-.28,0-.36-.44,0,.69-1.2,1.47-2.59,2.23-4,1.41,0,2.81-.1,4.06-.17l1.92-.12,1.7-.15c1.87-.22,2-.5-1.23-.86A7.43,7.43,0,0,0,79,73.56c-.5-.06-1.09-.1-1.74-.14-1.3-.06-2.85-.08-4.42-.1-.85,1.42-1.72,2.85-2.55,4A10.91,10.91,0,0,1,68,80c-2.56,1.71-1-3.75-3.54-2l-5.52,9.56c-2.16,1.92-1-3.76-2.36-1.37-4.92,6.71-10,16.49-15.55,26-.79-.46-3,1.48-.6-3.52q13-23,26.14-46.25l62.07-.57q4.73,8.07,9.46,16.12l6.36,10.77,6.35,10.77,9.58,16.38q-7.8,13.68-15.59,27.36T129.08,170.7c-32.93.05-30.46,0-63.26,0q-4.44-7.78-8.89-15.55l-5.56-9.8-11-19.6c-5.13-9.78.58-3.52,5.9,3-1.77-2.16-.59-2.84-2.37-5,1.18-.68,5.91,3,11.82,12.28l-4.14-7.16c-1-2.62,1.18-.68,2-1.14,1.38,2.4,2.75,4.78,3.15,4.55l1.57-.9c-1.38-2.39-4.14-7.17-5.51-9.56,1.37,2.39,2.75,4.78,3.14,4.55s1.18-.68,1.58-.91c3.15,4.55,6.5,12.17,9.65,16.72l1.18-.68c-2.37-5-6.89-11.94-9.65-16.72,1.77,2.17,2.16,1.94,3,1.49,4.53,6.93,7.49,14.78,12.8,21.26l-4.13-7.16a23.35,23.35,0,0,1,4.75,6c.4.65.81,1.34,1.21,2l.52.91.13.27c.17.35.33.75.51,1.17a10.59,10.59,0,0,0,1.29.15h1.58C81.06,150.78,81.82,150.76,82.54,150.72Z" fill="#0024ae"/></g><g id="bluePetal4"><path d="M149.14,205.06c.22-6.22.65-12.73,1.19-19.4q.43-5,.88-10.12l.24-2.56.12-1.19,0-.26.13-1.07-1-.78q-2.41-1.73-4.82-3.46l-10.05-7.13q-5-3.51-9.91-6.83L121.07,149l-.61-.39-.08-.06h0l-.06,0-.24-.11-.46-.16-.25-.07c-.31.27-.58.5-.8.71l0,0-.3.15-.68.36-1.37.71-2.76,1.41-11.13,5.62L91,162.75l-5.49,2.66-.15.17,0,.22c-.16,2-.33,4-.49,6.08q-.54,6.3-1.07,12.55c-.55,6.15-1.1,12.24-1.63,18.2h0c-.23.11-.48.23-.76.34-.77.34-1.57.38-2,.93a.16.16,0,0,0,0,.1l.36.9.17.46.09.24a.69.69,0,0,0,.19.31,11.48,11.48,0,0,1,2,2.89,2.57,2.57,0,0,1-.41,3c-.26.37-2-.82-3.36-1.81l-.94-.66a5.22,5.22,0,0,0-.53-.31c-.27-.12-.36-.05-.07.43-1.14-.79-2.45-1.69-3.79-2.58.09-1.41.16-2.81.2-4.06l0-1.93c0-.65,0-1.23,0-1.7,0-1.88-.32-2-1,1.15a6.69,6.69,0,0,0-.38,1.3c-.11.49-.21,1.07-.3,1.72-.18,1.29-.34,2.83-.5,4.39,1.33,1,2.68,2,3.79,2.9a11.11,11.11,0,0,1,2.44,2.54c1.47,2.7-3.83.64-2.36,3.34l9,6.36c1.73,2.33-3.82.63-1.57,2.22,6.24,5.51,15.52,11.5,24.53,17.85-.53.74,1.21,3.07-3.56.27L59.76,213q2.52-30.85,5.05-61.87l16.9-8L93,137.8l11.3-5.35,17.18-8.07,25.84,18,25.91,18.13c-2.93,32.8-2.71,30.34-5.75,63L151.2,231q-5.13,2.34-10.27,4.65l-20.51,9.2c-10.2,4.22-3.45-.9,3.48-5.61-2.31,1.57-2.88.33-5.19,1.9-.57-1.23,3.48-5.61,13.3-10.65l-7.51,3.47c-2.69.75-.57-1.23-1-2.06,2.5-1.16,5-2.31,4.81-2.73l-.76-1.64-10,4.63c2.5-1.16,5-2.32,4.82-2.73l-.77-1.65c4.82-2.73,12.71-5.37,17.52-8.1l-.57-1.24c-5.2,1.91-12.51,5.79-17.52,8.11,2.32-1.58,2.13-2,1.74-2.81,7.32-3.89,15.4-6.12,22.33-10.83l-7.5,3.47a23.19,23.19,0,0,1,6.36-4.19c.69-.35,1.4-.69,2.14-1l1-.43.27-.11,1.22-.4a12.06,12.06,0,0,0,.26-1.28l.05-.35.1-1.21C149.07,206.54,149.11,205.78,149.14,205.06Z" fill="#0024ae"/></g><g id="bluePetal5"><path d="M232.74,163.8c-5.55-2.81-11.28-5.93-17.11-9.22l-8.81-5.05-2.22-1.29-1-.61-.22-.14-.91-.56-1.13.59-5.17,2.92-10.69,6.13q-5.28,3.06-10.36,6.12l-5,3.06-.61.38-.09.06,0,0-.05,0-.2.18c-.12.12-.24.23-.34.34l-.16.2c.11.4.21.74.3,1l0,.05s0,.23,0,.33l0,.77.07,1.54c0,1,.08,2.06.13,3.1q.21,6.19.42,12.47t.31,12.59L170,205l.09.21.22,0,5.31,3,10.94,6.24,15.84,9.11h0q0,.38,0,.84c0,.83-.32,1.57,0,2.21,0,0,0,0,.08,0l1,.06.5,0,.25,0a.6.6,0,0,0,.36,0,12,12,0,0,1,3.45-.58,2.62,2.62,0,0,1,2.53,1.62c.22.4-1.57,1.43-3.06,2.29l-1,.58a4.15,4.15,0,0,0-.51.36c-.22.19-.19.3.37.24-1.2.69-2.57,1.51-3.94,2.35-1.24-.67-2.48-1.32-3.6-1.89l-1.73-.85c-.59-.29-1.11-.53-1.54-.72-1.73-.75-2-.57.64,1.36a6.53,6.53,0,0,0,1,.88c.4.31.89.64,1.44,1,1.09.71,2.42,1.49,3.77,2.3,1.45-.81,2.91-1.61,4.23-2.23a10.93,10.93,0,0,1,3.32-1.14c3.07-.2-1,3.74,2,3.54l9.56-5.52c2.84-.59-1,3.74,1.36,2.36,7.62-3.35,16.95-9.26,26.49-14.77.46.79,3.31.19-1.24,3.34l-45.76,27-54-30.55q-.06-9.33-.13-18.69l-.13-12.49L148,174l-.11-19,27.18-15.9,27.34-15.9c28.54,16.42,26.4,15.19,54.76,31.66q0,9-.07,17.91L257,184.08q-.13,11.25-.26,22.47c-.46,11-2.27,2.76-3.63-5.51.45,2.75-.91,2.75-.46,5.51-1.36,0-3.63-5.51-4.08-16.54v8.27c-.46,2.76-1.37,0-2.27,0,0-2.76,0-5.52-.46-5.52h-1.81v11c0-2.75,0-5.51-.46-5.51h-1.81c-.46-5.52.45-13.79,0-19.31h-1.37c-.45,5.52,0,13.79,0,19.31-.45-2.76-.9-2.76-1.81-2.76-.46-8.27.91-16.55-.46-24.82V179a23.33,23.33,0,0,1-1.13-7.53c0-.77,0-1.56,0-2.37,0-.35,0-.7,0-1l0-.29c0-.4.09-.83.15-1.28-.32-.26-.68-.53-1-.78l-.3-.18-1.06-.61C234.06,164.49,233.38,164.13,232.74,163.8Z" fill="#0024ae"/></g></g></svg>