<svg xmlns="http://www.w3.org/2000/svg" viewBox="0 0 157.15 214.64"><g id="cactusVillage"><g id="cactus"><g id="smallCactusRight"><path d="M48.07,59.93,54,45.21,41.11,41.14C32,38.26,26.1,53,35.22,55.87l12.85,4.06" fill="#054911" stroke="#000" stroke-miterlimit="10" stroke-width="2"/><path d="M47.29,59.69l5.18-13L40.62,43C32.22,40.33,27,53.28,35.44,55.94l11.85,3.75" fill="#054911" stroke="#000" stroke-miterlimit="10" stroke-width="2"/></g><g id="smallCactusLeft"><path d="M90.41,38l10.67,13.47L118.16,40.8c12.12-7.58,1.45-21.06-10.66-13.48L90.41,38" fill="#054911" stroke="#000" stroke-miterlimit="10" stroke-width="2"/><path d="M91.45,37.35l9.38,11.86,15.75-9.85c11.17-7,1.79-18.84-9.38-11.86L91.45,37.35" fill="#054911" stroke="#000" stroke-miterlimit="10" stroke-width="2"/></g><g id="bodyCactus"><path d="M47,89.62H99.78V49.83c0-28.22-52.74-28.22-52.74,0V89.62" fill="#054911" stroke="#000" stroke-miterlimit="10" stroke-width="2"/><path d="M47,87.22H88.62V50.53c0-26-41.58-26-41.58,0V87.22" fill="#054911" stroke="#000" stroke-miterlimit="10" stroke-width="2"/></g></g><g id="pot"><path id="potBrowm" d="M99,89.62H50.1C30.23,89.62,25,90.5,25,96.45l14.39,42.8A10.8,10.8,0,0,0,50.1,150.07H99a10.8,10.8,0,0,0,10.72-10.82l14-43.79C123.7,89.51,117.59,89.6,99,89.62Z" fill="#2f1c00" stroke="#000" stroke-miterlimit="10" stroke-width="3"/><path id="potIvary" d="M86.41,93.51l-36.58.19c-14.87.08-18.79.86-18.76,6l11,37.11c0,5.17,3.66,9.39,8.08,9.37L86.68,146c4.41,0,8-4.28,8-9.45l10.27-38.08C104.89,93.32,100.31,93.42,86.41,93.51Z" fill="#dbc4a5" stroke="#000" stroke-miterlimit="10" stroke-width="3"/></g><text transform="translate(41.82 126.51)" font-size="36" font-family="Copperplate">CV</text><text transform="translate(7.07 178.07)" font-size="36" font-family="Copperplate">Cactus <tspan x="0" y="24">Village</tspan></text></g></svg>