<svg id="flowerGarden" xmlns="http://www.w3.org/2000/svg" viewBox="0 0 257.74 312.76"><ellipse id="greenBackground" cx="128.94" cy="139.23" rx="87.34" ry="111.41" fill="#054911"/><ellipse id="whiteBackground" cx="128.57" cy="138.13" rx="76.08" ry="97.06" fill="#fff" stroke="#054911" stroke-miterlimit="10" stroke-width="4"/><line id="stem" x1="128.57" y1="129.13" x2="128.94" y2="203.13" fill="none" stroke="#054911" stroke-miterlimit="10" stroke-width="4"/><path id="leaves" d="M128.57,145.13s-31.43,7,0,14,0,15,0,15-27.69,9,.37,15" fill="none" stroke="#054911" stroke-miterlimit="10" stroke-width="4"/><path id="floretPink" d="M106,82.13c-14,63,60,69,44,0l-21.06,8Z" fill="#f1b4ff" stroke="#054911" stroke-miterlimit="10" stroke-width="4"/><path id="floretYellow" d="M114.6,82.13c10.1-11.8,19.39-11.45,27.94,0l-13.6,8Z" fill="#fffdc3" stroke="#054911" stroke-miterlimit="10" stroke-width="4"/><path id="petal" d="M106,82.13c24,7.21,38.46,21.42,38.46,42.83" fill="none" stroke="#054911" stroke-miterlimit="10" stroke-width="4"/><text transform="translate(18.11 287.38) scale(1.06 1)" font-size="36" fill="#054911" stroke="#054911" stroke-miterlimit="10" font-family="Apple-Chancery, Apple Chancery">Flower Ga<tspan x="153.54" y="0" letter-spacing="-0.01em">r</tspan><tspan x="168.1" y="0">den</tspan></text></svg>