<svg xmlns="http://www.w3.org/2000/svg" viewBox="0 0 251.83 255.42"><g id="greenTulip"><circle id="greenBase" cx="128.35" cy="129.62" r="93.66" fill="#00200b"/><path id="tulipPetal1" d="M80.14,78.84s-6.87,48.87,0,76.89,34.51,46.19,63.86,37.79C152.47,108.16,80.14,78.84,80.14,78.84Z" fill="#fff" stroke="#fff" stroke-miterlimit="10"/><path id="tulipPetal2" d="M179.19,78.84c2.85,27.85,3.52,53.34,0,74.28-2.28,19.81-28.67,37.14-28.67,37.14s-.66-48.2-17.6-71.67C145.6,97.91,160.42,83,179.19,78.84Z" fill="#fff" stroke="#fff" stroke-miterlimit="10"/><path id="tulipPetal3" d="M147.26,91.87c-1.79-6.44-9.12-13-18.91-13-6.26,1.57-12.09,4.54-16.28,13,6.26,6.75,13.69,13,17.59,20.85C134.55,103.28,142.7,95.78,147.26,91.87Z" fill="#fff" stroke="#fff" stroke-miterlimit="10"/></g></svg>