<svg xmlns="http://www.w3.org/2000/svg" xmlns:xlink="http://www.w3.org/1999/xlink" viewBox="0 0 241.57 144.75"><defs><linearGradient id="linear-gradient" x1="121.33" y1="17.69" x2="121.33" y2="95.88" gradientUnits="userSpaceOnUse"><stop offset="0.16" stop-color="#d317f7"/><stop offset="0.26" stop-color="#cd18f5"/><stop offset="0.39" stop-color="#bc1aee"/><stop offset="0.54" stop-color="#a11de2"/><stop offset="0.7" stop-color="#7b22d2"/><stop offset="0.82" stop-color="#5826c4"/><stop offset="0.87" stop-color="#401c90"/><stop offset="0.99" stop-color="#06020d"/><stop offset="1"/></linearGradient><linearGradient id="linear-gradient-2" x1="119.43" y1="38.01" x2="119.43" y2="96.1" xlink:href="#linear-gradient"/></defs><g id="lotusPower"><path id="onePetal" d="M121.65,95.88c-24.72-28.71-19.12-59.08,0-78.19C145,38.13,140.49,74.05,121.65,95.88Z" stroke="#000" stroke-miterlimit="10" stroke-width="2" fill="url(#linear-gradient)"/><path id="twoPetals" d="M62.61,38.54c0,76.89,119.9,76.89,113.38,0q-49.38,10.23-54.14,55.18a.39.39,0,0,1-.77.06C110,53.32,90.4,35.07,62.61,38.54Z" stroke="#000" stroke-miterlimit="10" stroke-width="2" fill="url(#linear-gradient-2)"/><text transform="translate(14 62.83) rotate(58.72) scale(1.09 1)" font-size="33" font-family="KohinoorDevanagari-Regular, Kohinoor Devanagari"> </text><text transform="translate(20.05 72.7) rotate(53.78) scale(1.09 1)" font-size="33" font-family="KohinoorDevanagari-Regular, Kohinoor Devanagari"> </text><text transform="translate(27.08 82.51) rotate(46.77) scale(1.09 1)" font-size="33" font-family="KohinoorDevanagari-Regular, Kohinoor Devanagari">L</text><text transform="translate(40.92 97.1) rotate(36.81) scale(1.09 1)" font-size="33" font-family="KohinoorDevanagari-Regular, Kohinoor Devanagari">o</text><text transform="matrix(0.97, 0.51, -0.46, 0.89, 59.07, 110.14)" font-size="33" font-family="KohinoorDevanagari-Regular, Kohinoor Devanagari">t</text><text transform="matrix(1.04, 0.34, -0.31, 0.95, 73.25, 117.67)" font-size="33" font-family="KohinoorDevanagari-Regular, Kohinoor Devanagari">u</text><text transform="translate(95.44 124.53) rotate(7.7) scale(1.09 1)" font-size="33" font-family="KohinoorDevanagari-Regular, Kohinoor Devanagari">s</text><text transform="matrix(1.09, 0, 0, 1, 114.21, 126.72)" font-size="33" font-family="KohinoorDevanagari-Regular, Kohinoor Devanagari"> </text><text transform="translate(126.68 126.95) rotate(-8.49) scale(1.09 1)" font-size="33" font-family="KohinoorDevanagari-Regular, Kohinoor Devanagari">P</text><text transform="matrix(1.03, -0.37, 0.34, 0.94, 149.13, 123.34)" font-size="33" font-family="KohinoorDevanagari-Regular, Kohinoor Devanagari">o</text><text transform="matrix(0.91, -0.6, 0.55, 0.84, 170.8, 115.62)" font-size="33" font-family="KohinoorDevanagari-Regular, Kohinoor Devanagari">w</text><text transform="matrix(0.75, -0.79, 0.72, 0.69, 195.82, 98.31)" font-size="33" font-family="KohinoorDevanagari-Regular, Kohinoor Devanagari">e</text><text transform="matrix(0.63, -0.89, 0.82, 0.58, 210.47, 82.4)" font-size="33" font-family="KohinoorDevanagari-Regular, Kohinoor Devanagari">r</text><text transform="matrix(0.49, -0.87, 0.87, 0.49, 218.67, 70.51)" font-size="36" font-family="Copperplate"> </text></g></svg>