<svg xmlns="http://www.w3.org/2000/svg" viewBox="0 0 362.28 341.43"><g id="palmLeafSummerCamp"><path id="palmLeaf" d="M226.78,103c-4.62,4.94-6.1,10.14-3.91,15.64-28.35-2-21.18,16.29-3.91,9.77,3.4,6,4.39,13.37,3.91,21.5-27.37-5.54-27.37,12.71,0,12.71A47.74,47.74,0,0,1,219,186.51c-19.55-20-44-8.63-8.8,13.2-20.2,24.11-75.26,7.82-82.1-26.39,36.17,4.89,37.14-17.92,0-13.68a77.5,77.5,0,0,1,12.71-25.42c27.69,18.9,30.95,5.22,5.86-8.79a34.18,34.18,0,0,1,15.64-14.66c15.15,18.57,28.34,11.07,9.77-7.82C193.11,94.07,211.79,92.71,226.78,103Z" fill="#1e7c5a" stroke="#000" stroke-miterlimit="10" stroke-width="3"/><path id="steamPalm" d="M154.78,257.37C165,165.2,186.63,106.59,226.78,103" fill="none" stroke="#000" stroke-miterlimit="10" stroke-width="3"/><path id="deco1" d="M133.61,186.67q19.21,10.11,31.92,4.58" fill="none" stroke="#000" stroke-miterlimit="10" stroke-width="3"/><path id="deco2" d="M135.23,142.59c12.92,10.26,26.05,17.25,39.75,15.91" fill="none" stroke="#000" stroke-miterlimit="10" stroke-width="3"/><path id="deco3" d="M155.1,115.25q10.32,15,28.89,22.52" fill="none" stroke="#000" stroke-miterlimit="10" stroke-width="3"/><path id="deco4" d="M221.8,135.62c-14,8.34-27.47,11.25-40.23,7" fill="none" stroke="#000" stroke-miterlimit="10" stroke-width="3"/><path id="deco5" d="M223.05,169.11a66.78,66.78,0,0,1-49.22-7.35" fill="none" stroke="#000" stroke-miterlimit="10" stroke-width="3"/><path id="deco6" d="M200.29,207.31c-14.45-3.62-24.86-10.21-33.82-21.13" fill="none" stroke="#000" stroke-miterlimit="10" stroke-width="3"/><circle id="dot1" cx="181.71" cy="176.19" r="5.29" fill="#e6f42f" stroke="#000" stroke-miterlimit="10" stroke-width="3"/><circle id="dot2" cx="193.22" cy="108.17" r="5.23" fill="#e6f42f" stroke="#000" stroke-miterlimit="10" stroke-width="3"/><g id="PalmLeafe_Summer_Camp" data-name="PalmLeafe Summer Camp"><path d="M30.46,111.86l4.7-9.17c2.41-4.69,6.84-6.49,11.7-4s6.19,7.21,3.64,12.19L47,117.78,58.9,123.9l-1,2ZM45,116.77l3.63-7.08c2.13-4.14.66-7.07-2.78-8.83-3.69-1.89-6.93-.68-8.69,2.76l-3.71,7.23Z" stroke="#000" stroke-miterlimit="10" stroke-width="3"/><path d="M84.44,80.78a26.41,26.41,0,0,0,3.23,2.66l-1.35,1.44a15.08,15.08,0,0,1-2.72-2.06c.7,1.63,1.12,4.52-1.79,7.61-3.28,3.47-7.09,2.71-9.49.44C68.8,87.55,69.6,83.49,73.84,79l2.69-2.85-1.64-1.54c-1.59-1.51-4.16-3.08-7.39.33-2.85,3-1.58,5.08-.58,6.65l-1.41,1.5c-1.59-1.84-3.35-5.43.55-9.57,3.22-3.41,6.57-3.88,10.09-.56Zm-6.51-3.36-2.77,2.94C72,83.68,71,86.63,73.75,89.22A4.43,4.43,0,0,0,80.39,89c4-4.29,1.57-7.76-1.88-11Z" stroke="#000" stroke-miterlimit="10" stroke-width="3"/><path d="M104.42,70.3,86.54,43.24l1.72-1.13,17.88,27.06Z" stroke="#000" stroke-miterlimit="10" stroke-width="3"/><path d="M119.65,42.88c-.56-1.81-1.18-3.78-1.73-5.41l1.93-.6c.26.71.9,2.49,1.24,3.72a6.48,6.48,0,0,1,4.58-6.09,5.89,5.89,0,0,1,7,2.38,7,7,0,0,1,5.11-6.15c3-.95,6.75-.08,8.57,5.76l4.31,13.82-2,.61-4.24-13.57c-.88-2.81-2.78-5.58-6.43-4.44-3.82,1.19-4.52,5-3.25,9.08l3.77,12.1-1.93.6L132.4,41.16c-1-3.07-2.71-5.65-6.33-4.52-3.81,1.19-4.53,5.38-3.19,9.66l3.6,11.55-2,.62Z" stroke="#000" stroke-miterlimit="10" stroke-width="3"/><path d="M204.76,20.27l2.17.5-6.46,27.86,15.09,3.5-.9,2-16.85-3.91Z" stroke="#000" stroke-miterlimit="10" stroke-width="3"/><path d="M238,52.36c-2.75,5-2.14,9.35,1.31,11.29a5.85,5.85,0,0,0,7.2-.7l1.83,1c-2.17,2.11-5.69,3.92-10.11,1.44-5.46-3.07-4.76-9.28-2-14.15,3.08-5.49,8.28-8.78,13.52-5.83,5.53,3.11,4.43,9.2,2.4,12.8-.3.54-.6,1.08-.92,1.56Zm12.33,4.71c2.1-3.82,1.84-7.9-1.68-9.88-3.7-2.08-6.94-.26-9.6,3.54Z" stroke="#000" stroke-miterlimit="10" stroke-width="3"/><path d="M274.3,88.17a26.31,26.31,0,0,0-2.75,3.16l-1.4-1.4a15.58,15.58,0,0,1,2.13-2.66c-1.64.66-4.54,1-7.54-2-3.38-3.38-2.5-7.17-.17-9.5,3.43-3.42,7.46-2.5,11.83,1.87l2.76,2.77,1.59-1.59c1.56-1.55,3.21-4.07-.11-7.39-2.94-3-5-1.74-6.63-.78l-1.45-1.46c1.88-1.54,5.52-3.19,9.54.83,3.32,3.33,3.69,6.68.26,10.11Zm3.55-6.4L275,78.91c-3.23-3.24-6.14-4.34-8.82-1.67a4.44,4.44,0,0,0,.05,6.65c4.16,4.17,7.7,1.79,11.06-1.56Z" stroke="#000" stroke-miterlimit="10" stroke-width="3"/><path d="M284.34,108.71l17-10.42-1.85-3,1.76-1.08,1.86,3,2.66-1.63c3.15-1.93,7.12-3.21,9.53.73a7,7,0,0,1,.79,1.88l-1.8,1.1a9.83,9.83,0,0,0-.93-2c-1.28-2.07-3.32-1.88-6.59.12L304.17,99l2.35,3.83-1.76,1.08L302.41,100l-17,10.42Z" stroke="#000" stroke-miterlimit="10" stroke-width="3"/><path d="M305.84,127.69c-5.39,1.79-7.92,5.42-6.7,9.18a5.84,5.84,0,0,0,5.76,4.38l.65,2c-3,.07-6.84-1-8.4-5.82-1.93-6,2.81-10,8.13-11.76,6-1.94,12-.82,13.88,4.9,2,6-3,9.76-6.93,11-.58.19-1.17.38-1.72.52Zm5.86,11.84c4.13-1.38,6.71-4.56,5.47-8.4-1.3-4-4.92-4.9-9.45-3.91Z" stroke="#000" stroke-miterlimit="10" stroke-width="3"/><path d="M311.38,192.62c-4.18.14-7,2.24-7.82,6.9-.91,5.2,1.51,7.67,4.8,8.25s5.8-.44,8.54-6.4c2.66-5.73,5.2-8,9.57-7.19,4,.7,7.24,4.07,6.17,10.16-1.09,6.25-5.63,8.17-9.38,7.89l.4-2.27c3.36-.08,6-1.66,6.84-6.12.72-4.1-.93-6.69-4.31-7.28s-5,1.05-7.27,6c-3.53,7.62-7.16,8.19-10.8,7.55-4.46-.78-7.78-4.5-6.63-11.07,1.25-7.1,6.13-8.92,10.29-8.74Z" stroke="#000" stroke-miterlimit="10" stroke-width="3"/><path d="M292.48,243.9c-1.93-1-5-2.47-5.76-2.85l.89-1.76a36.69,36.69,0,0,1,3.47,1.61c-1.93-1.94-2.55-4.61-.9-7.89,1.33-2.65,4.13-5.48,10.15-2.45l13,6.55-.91,1.8-12.53-6.31c-2.87-1.45-6.08-2-7.92,1.64-2.07,4.12-.38,6.91,5.24,9.74l10.1,5.09-.93,1.84Z" stroke="#000" stroke-miterlimit="10" stroke-width="3"/><path d="M286.6,270.13c1.32,1.35,2.77,2.83,4,4l-1.44,1.41c-.55-.5-1.94-1.8-2.8-2.74a6.48,6.48,0,0,1-1.3,7.5,5.87,5.87,0,0,1-7.32,1.07,7,7,0,0,1-1.74,7.81c-2.27,2.22-6,3.15-10.26-1.22l-10.13-10.33,1.47-1.45L267,286.36c2.06,2.11,5,3.71,7.75,1s1.75-6.52-1.24-9.57l-8.87-9.05,1.45-1.41L276,277.48c2.25,2.29,5,3.79,7.7,1.14,2.85-2.8,1.58-6.86-1.56-10.06l-8.46-8.64,1.47-1.44Z" stroke="#000" stroke-miterlimit="10" stroke-width="3"/><path d="M244.81,304.17c.74,1.74,1.55,3.65,2.26,5.21l-1.86.79c-.33-.67-1.14-2.38-1.61-3.57a6.46,6.46,0,0,1-3.94,6.5,5.88,5.88,0,0,1-7.21-1.67,7,7,0,0,1-4.47,6.64c-2.92,1.24-6.71.75-9.11-4.88l-5.66-13.33,1.9-.8,5.56,13.08c1.15,2.71,3.32,5.28,6.84,3.78,3.68-1.56,4-5.43,2.34-9.36l-5-11.66,1.86-.79,5.54,13c1.26,3,3.26,5.36,6.75,3.87,3.68-1.56,4-5.8,2.22-9.93L236.53,290l1.9-.8Z" stroke="#000" stroke-miterlimit="10" stroke-width="3"/><path d="M193,314.48c-.47-5.65-3.41-9-7.35-8.66a5.84,5.84,0,0,0-5.6,4.58l-2.1.16c.64-3,2.57-6.42,7.62-6.8,6.24-.48,9.11,5.08,9.53,10.65.48,6.27-2,11.89-8,12.35-6.32.49-8.78-5.19-9.1-9.32,0-.61-.09-1.23-.09-1.8Zm-12.87,2.93c.37,4.34,2.85,7.59,6.88,7.28,4.23-.32,5.92-3.63,6-8.27Z" stroke="#000" stroke-miterlimit="10" stroke-width="3"/><path d="M154.69,319.17c-.62,3.65-.85,5.22-1,5.91l-2-.34c.07-.7.27-2.09.74-4.87a7.87,7.87,0,0,1-8,4.18l.4-2.35c4.27.42,7.65-2.22,8.53-7.38L155.35,303l2,.34Z" stroke="#000" stroke-miterlimit="10" stroke-width="3"/><path d="M84.44,278.44c4-3.08,8.94-4,13.82-.35,6.62,5,5.89,13.22.68,20.15-5,6.65-13,10.13-19.68,5.09-5-3.74-5.69-8.89-3.35-13.58l1.78,1.34c-1.35,4-1,7.56,3,10.55,5.73,4.31,12.34.52,16.33-4.8s5.76-12.61-.14-17c-3.75-2.82-7.22-2.18-10.65,0Z" stroke="#000" stroke-miterlimit="10" stroke-width="3"/><path d="M64.55,248.46a26.84,26.84,0,0,0,3.22-2.68l1.16,1.6a15.66,15.66,0,0,1-2.52,2.29c1.72-.39,4.64-.27,7.13,3.17,2.81,3.87,1.35,7.47-1.33,9.41-3.91,2.84-7.75,1.3-11.38-3.71-1-1.4-1.81-2.5-2.3-3.16l-1.81,1.31c-1.78,1.29-3.81,3.53-1,7.33,2.44,3.37,4.69,2.5,6.42,1.81l1.21,1.66c-2.1,1.22-5.95,2.29-9.29-2.32-2.76-3.8-2.6-7.17,1.32-10ZM60,254.23l2.37,3.27c2.69,3.7,5.39,5.25,8.45,3a4.43,4.43,0,0,0,1-6.57c-3.45-4.77-7.32-3-11.17-.19Z" stroke="#000" stroke-miterlimit="10" stroke-width="3"/><path d="M42,232.62c-1.81.56-3.78,1.18-5.41,1.73l-.6-1.93c.71-.26,2.49-.9,3.72-1.24a6.5,6.5,0,0,1-6.08-4.58,5.87,5.87,0,0,1,2.38-7,7,7,0,0,1-6.15-5.12c-.94-3-.07-6.75,5.77-8.57l13.82-4.29.61,2L36.48,207.8c-2.81.88-5.59,2.77-4.45,6.43,1.19,3.82,5,4.53,9.08,3.26l12.1-3.76.6,1.93-13.53,4.21c-3.07.95-5.65,2.7-4.53,6.32,1.19,3.82,5.38,4.54,9.66,3.21L57,225.81l.61,2Z" stroke="#000" stroke-miterlimit="10" stroke-width="3"/><path d="M44.38,178.62l12,.35L56.37,181,31,180.29c-1.8-.06-3.73-.11-5.41-.12l.06-2c.84-.06,2.16,0,4,0a7.53,7.53,0,0,1-4.27-7.38c.14-4.86,4.59-8.11,11.19-7.92,7.92.23,12,4.31,11.83,9.29C48.25,175.8,46.48,177.65,44.38,178.62Zm-7.84-13.55c-5.1-.14-9,2.05-9.11,6.13-.15,5,3.14,7.14,9.12,7.31s9.59-1.33,9.74-6.47C46.41,167.75,42.61,165.25,36.54,165.07Z" stroke="#000" stroke-miterlimit="10" stroke-width="3"/></g></g></svg>