<svg xmlns="http://www.w3.org/2000/svg" viewBox="0 0 272.05 236.51"><g id="Rose"><circle id="roseBase" cx="139.47" cy="119.29" r="95.78" fill="#edadf2"/><g id="circuit1"><path d="M144.08,70.07c-5.64.52-11.23,1-16.74,1.82a105.37,105.37,0,0,0-16,3.18,41.58,41.58,0,0,0-6.92,2.73,12.35,12.35,0,0,0-2.49,1.68c-.62.57-.91,1.11-.87,1.28s.25-.09.35,0,.42.57,1,1.12a20.82,20.82,0,0,0,4.77,3.6,53.62,53.62,0,0,0,13.46,5.36A63.71,63.71,0,0,0,135.1,93c1.19,0,2.38,0,3.55,0s2.29-.15,3.55-.27c2.66-.29,5.36-.51,7.93-.92a119.19,119.19,0,0,0,15.09-3,62.16,62.16,0,0,0,13.15-5,27.31,27.31,0,0,0,4.73-3.21,7.71,7.71,0,0,0,2.12-2.57.19.19,0,0,1,0-.2c-.09,0-.08,0-.09,0s-.06.15-.1.23a.24.24,0,0,0-.05.13s0,.09,0,.11-.05.14-.17,0a.58.58,0,0,1-.13-.15c0-.06,0-.11-.15-.2a5.72,5.72,0,0,1-.46-.51,21.39,21.39,0,0,0-3.69-2.72,39.47,39.47,0,0,0-5.6-2.59l-1.54-.59-1.64-.52c-.56-.16-1.08-.37-1.65-.53L168.25,70l-1.7-.47-1.64-.36-1.64-.38c-.56-.12-1.18-.18-1.76-.27l-1.78-.26L157.8,68c-1.28-.18-2.57-.32-3.86-.45-2.57-.27-5.15-.46-7.72-.61a136.06,136.06,0,0,0-30.35,1.31,93.15,93.15,0,0,0-14.24,3.28,65.77,65.77,0,0,0-12.58,5.41,33.72,33.72,0,0,0-9.17,7.27,18,18,0,0,0-2.54,3.9,12.69,12.69,0,0,0-1.15,3.82A16.36,16.36,0,0,0,77.94,101a38.25,38.25,0,0,0,3,5.22,55.48,55.48,0,0,0,4.23,5.24,89,89,0,0,0,10.92,9.8l1.52,1.16.76.58.49.35a10.31,10.31,0,0,1,1,.83c8.49,2-26.51,34.61-13.18,19.88l-.59-.3-.32-.19-.65-.39c-.15-.1-.27-.17-.78-.53-5.81,2.71,19.61-39.61,11.48-20.88a9.92,9.92,0,0,1,.94.43l.5.25.84.43,1.67.87c1.11.6,2.26,1.12,3.41,1.64s2.29,1.09,3.48,1.54c18.77,7.9,40.19,10.91,61.73,10.18a180,180,0,0,0,32.38-3.91,140.13,140.13,0,0,0,15.93-4.26,88.94,88.94,0,0,0,15.31-6.42l.95,1.28a83.39,83.39,0,0,1-14.7,8.54,140.42,140.42,0,0,1-15.81,6.14,174.11,174.11,0,0,1-33.09,7.2,163.45,163.45,0,0,1-33.9.49c-2.82-.23-5.63-.63-8.44-1s-5.59-.93-8.36-1.56a122.62,122.62,0,0,1-16.37-4.66c-1.35-.44-2.65-1-4-1.53s-2.64-1.05-3.93-1.66l-1.94-.89-1-.44-.48-.22-.16-.07c-1,2.09,1.85-2.69,1.27-2.34l0,0,.34.19c1.53-1.65-2.3,2.08-1.42,2.25.07,0,0,0,0,0l-.18-.12-.88-.61-1.76-1.2a101.09,101.09,0,0,1-13.15-10.89A72.67,72.67,0,0,1,69.5,115a49.31,49.31,0,0,1-4.66-7.32,31.65,31.65,0,0,1-3.73-17,29.56,29.56,0,0,1,6.7-16.12A48.58,48.58,0,0,1,81.05,63.36c10-5.84,21.09-9.09,32.29-10.93a149.19,149.19,0,0,1,34-1.24c5.67.41,11.27,1.09,16.89,2,.7.12,1.41.21,2.11.37l2.09.51,2.09.51,2.06.6,2,.61c.69.21,1.36.46,2,.7l2,.71,2,.83A53.79,53.79,0,0,1,188.36,62a34.23,34.23,0,0,1,6.78,5.63,17.19,17.19,0,0,1,4.12,8.11,13.59,13.59,0,0,1-1.61,9,22.79,22.79,0,0,1-6,6.64A41,41,0,0,1,184.25,96,76.56,76.56,0,0,1,168,101.27a123.17,123.17,0,0,1-16.85,2.4c-2.82.28-5.64.35-8.47.49a60,60,0,0,1-8.58-.23,72.25,72.25,0,0,1-16.71-3.69A59.44,59.44,0,0,1,102,92.52a25.78,25.78,0,0,1-6.24-6.18A11.28,11.28,0,0,1,94,82.05a7.44,7.44,0,0,1,.83-4.8,10.6,10.6,0,0,1,3.25-3.34,19.94,19.94,0,0,1,3.94-2,43.33,43.33,0,0,1,8.32-2.27,112.16,112.16,0,0,1,16.92-1.47c5.65-.1,11.29,0,16.91.34Z" fill="#fff"/></g><g id="circuit2"><path d="M201.36,86.25a36.36,36.36,0,0,1,9.41,6.58,40.73,40.73,0,0,1,6.63,8.29,41.49,41.49,0,0,1,5.88,20.7A40.62,40.62,0,0,1,217.76,143a38.79,38.79,0,0,1-6.78,8.44,33.74,33.74,0,0,1-9.64,6.36l-1.47-.64,1.55-4.28c.52-1.43.94-2.89,1.42-4.33.93-2.87,1.77-5.77,2.43-8.7a70.24,70.24,0,0,0,2-17.77,81.43,81.43,0,0,0-2.4-17.77c-.66-2.94-1.48-5.86-2.35-8.77s-1.74-5.82-2.67-8.73Z" fill="#fff"/></g></g></svg>