<svg xmlns="http://www.w3.org/2000/svg" viewBox="0 0 228.55 244.99"><g id="shanty"><path id="petal1" d="M114.36,101.22C86.55,80.8,90,44.75,114.36,23,140.42,45.18,143,82.54,114.36,101.22Z" fill="#b4009b" stroke="#3926ff" stroke-miterlimit="10" stroke-width="3" opacity="0.4"/><path id="petal2" d="M113.79,101.55c-34.07,5.37-57.23-22.47-55.53-55C92.34,43.59,120.71,68,113.79,101.55Z" fill="#b4009b" stroke="#3926ff" stroke-miterlimit="10" stroke-width="3" opacity="0.4"/><path id="petal3" d="M114.94,100.57C149.05,95.44,172,123.45,170.09,156,136,158.68,107.79,134,114.94,100.57Z" fill="#b4009b" stroke="#3926ff" stroke-miterlimit="10" stroke-width="3" opacity="0.4"/><path id="petal4" d="M114,102.74c-20.45,27.78-56.5,24.26-78.19-.09C58,76.61,95.33,74.05,114,102.74Z" fill="#b4009b" stroke="#3926ff" stroke-miterlimit="10" stroke-width="3" opacity="0.4"/><path id="petal5" d="M113.23,102.36c6.12,33.94-21.21,57.71-53.81,56.73C55.76,125.08,79.57,96.18,113.23,102.36Z" fill="#b4009b" stroke="#3926ff" stroke-miterlimit="10" stroke-width="3" opacity="0.4"/><path id="petal6" d="M114.73,102.22c27.57,20.72,23.7,56.73-.86,78.18C88.05,158,85.86,120.58,114.73,102.22Z" fill="#b4009b" stroke="#3926ff" stroke-miterlimit="10" stroke-width="3" opacity="0.4"/><path id="petal7" d="M114.84,101.21c20.81-27.51,56.81-23.53,78.18,1.1C170.5,128.06,133.11,130.14,114.84,101.21Z" fill="#b4009b" stroke="#3926ff" stroke-miterlimit="10" stroke-width="3" opacity="0.4"/><path id="petal8" d="M115.3,101.14c-6.06-33.95,21.32-57.66,53.92-56.62C172.81,78.54,148.94,107.39,115.3,101.14Z" fill="#b4009b" stroke="#3926ff" stroke-miterlimit="10" stroke-width="3" opacity="0.4"/><circle id="middle" cx="113.83" cy="102.22" r="4.64" fill="#f9ff05"/><text transform="translate(48.9 218.93) scale(1 1.1)" font-size="40" stroke="#000" stroke-miterlimit="10" stroke-width="2" font-family="Apple-Chancery, Apple Chancery">Shanty </text></g></svg>