<svg xmlns="http://www.w3.org/2000/svg" viewBox="0 0 181.36 139.52"><g id="spring"><path id="steamBranch" d="M13.11,53.41c38.37,14.33,74.28,15.8,106.86,0" fill="none" stroke="#054911" stroke-miterlimit="10" stroke-width="3"/><path id="firstleaf" d="M56.23,64c14.61-7.53,14.61-21.43,4.67-29.25C46.13,39.08,43.09,53.41,56.23,64Z" fill="#cadb00"/><path id="secondleaf" d="M77.84,64.88q16.93,6.3,2.6,25.63Q62.63,77.68,77.84,64.88Z" fill="#cadb00"/><path id="thirdleaf" d="M101.22,60.53c8.62-9.47,7.46-22.76-8.18-28.4C82.62,46.33,87.66,59.06,101.22,60.53Z" fill="#cadb00"/><path id="redleaf" d="M119,54c12.24-23.11,29.56-32.3,56.47-15.21C166.32,62.39,144.17,67.9,119,54Z" fill="#a60031" stroke="#851900" stroke-miterlimit="10"/><path d="M37.36,110.42a5.86,5.86,0,0,1-.85,3.18,6.56,6.56,0,0,1-2.3,2.2,10.56,10.56,0,0,1-3,1.17,17,17,0,0,1-3.79.4c-.75,0-1.53,0-2.33-.07l-1.4-.09-.14-2.53,1.37.13c.75.06,1.64.1,2.66.1a15.74,15.74,0,0,0,2.4-.25,8.7,8.7,0,0,0,2.27-.63,4.44,4.44,0,0,0,1.59-1.23,2.91,2.91,0,0,0,.56-1.83,3.49,3.49,0,0,0-.56-2A5.6,5.6,0,0,0,32,107.4a23.7,23.7,0,0,0-2.14-1.11A23.49,23.49,0,0,1,27.47,105a7.19,7.19,0,0,1-2.56-2.39A5.91,5.91,0,0,1,24.84,97a6.88,6.88,0,0,1,1.81-2,7.6,7.6,0,0,1,2.75-1.27A14.45,14.45,0,0,1,33,93.25c.72,0,1.46,0,2.21.06l1.27.08.25,2.55-1.28-.12c-.75-.07-1.68-.11-2.78-.11a9.62,9.62,0,0,0-2,.22,6.17,6.17,0,0,0-1.84.68,3.53,3.53,0,0,0-1.19,1.12,2.91,2.91,0,0,0-.5,1.69,3.06,3.06,0,0,0,.52,1.66,6,6,0,0,0,1.94,1.64,20.74,20.74,0,0,0,1.91,1c.79.39,1.57.8,2.33,1.24a8.08,8.08,0,0,1,2.65,2.39A5.41,5.41,0,0,1,37.36,110.42Z" fill="#054911"/><path d="M58.05,107.61a8.42,8.42,0,0,1-1.21,4.63,8.73,8.73,0,0,1-3.27,3,13.56,13.56,0,0,1-3.94,1.33,22.81,22.81,0,0,1-4.07.39l.07,8.07h-2.8c0-.2,0-1.82,0-4.86s0-6.09,0-9.15c0-1.54,0-3.32,0-5.35s0-4.23-.05-6.57l1.12,0h.85a32.32,32.32,0,0,1,5.73.39,11.37,11.37,0,0,1,3.71,1.37,7.56,7.56,0,0,1,3.81,6.75Zm-2.81.1a5.57,5.57,0,0,0-.81-3,6,6,0,0,0-2.11-2.06,9.34,9.34,0,0,0-2.68-1,16.63,16.63,0,0,0-3.26-.31h-.79c0,.2,0,.9,0,2.08s0,3.24,0,6.16c0,.6,0,1.46,0,2.56s0,2,0,2.63a18.41,18.41,0,0,0,3.3-.3,10.82,10.82,0,0,0,2.72-.84,6.5,6.5,0,0,0,2.73-2.33A6.58,6.58,0,0,0,55.24,107.71Z" fill="#054911"/><path d="M73.08,101.33c-.64.16-1.63.48-3,1s-2.86,1.15-4.6,2c0,.13,0,.72,0,1.77s0,2,0,2.92c0,1.39,0,3,0,4.93s0,3,0,3.16H62.8c0-.2,0-.86,0-2s0-3,0-5.71c0-1.09,0-2.62,0-4.57s0-3.8-.05-5.54h2.72v2.67l0,0a39.64,39.64,0,0,1,3.92-2,23.13,23.13,0,0,1,3.1-1.13Z" fill="#054911"/><path d="M79.78,95.85H76.69v-3h3.09Zm-.16,21.2H76.84c0-.19,0-1.34,0-3.46s0-3.88,0-5.26v-4c0-1.45,0-3.14-.07-5.09h2.78q0,2.53-.06,4.74t0,3.93q0,4.09,0,6.57C79.61,116.15,79.62,117,79.62,117.05Z" fill="#054911"/><path d="M100.82,117.05H98c0-.33,0-1.41,0-3.25s0-3,0-3.41v-2.7q0-1.78,0-2.61a4.82,4.82,0,0,0-.77-2.9,3.08,3.08,0,0,0-2.5-.88,7.5,7.5,0,0,0-2.66.63A20.84,20.84,0,0,0,89,103.55c0,.13,0,.83,0,2.09s0,2.42,0,3.46c0,1.36,0,3,0,4.93s.05,2.93.05,3H86.23c0-.08,0-.8,0-2.15s0-3.37,0-6c0-1.23,0-2.67,0-4.33s0-3.41-.06-5.27H89v2.06a24.2,24.2,0,0,1,4.11-2,8.86,8.86,0,0,1,2.73-.56,4.78,4.78,0,0,1,3.61,1.42,5.33,5.33,0,0,1,1.37,3.87c0,1.48,0,2.76,0,3.83s0,1.94,0,2.61c0,1.06,0,2.4,0,4S100.82,117,100.82,117.05Z" fill="#054911"/><path d="M120.6,99.1q0,.39,0,3.48c0,2.07,0,4,0,5.89,0,1.27,0,2.56,0,3.87s0,2.51,0,3.6a9,9,0,0,1-1,4.71,7.44,7.44,0,0,1-2.93,2.73A14.49,14.49,0,0,1,113,124.6a25.65,25.65,0,0,1-5.2.45l-.28-2.23c1.37,0,2.6-.1,3.69-.22a12.94,12.94,0,0,0,3-.68,5.61,5.61,0,0,0,2.87-2,5.84,5.84,0,0,0,.84-3.1H117a19.75,19.75,0,0,1-4.31-.5,10.84,10.84,0,0,1-3.78-1.59,7.77,7.77,0,0,1-3.48-6.84,7.24,7.24,0,0,1,1.35-4.34,9.48,9.48,0,0,1,3.63-3,12.48,12.48,0,0,1,3.52-1.1,30.1,30.1,0,0,1,4.61-.31h2Zm-2.69,9.34c0-.84,0-1.89,0-3.15s0-2.59-.05-4h-.45a17.06,17.06,0,0,0-2.86.22,11.36,11.36,0,0,0-2.57.79,6,6,0,0,0-2.75,2.26,6.16,6.16,0,0,0-1,3.37,5.72,5.72,0,0,0,.94,3.3,6.36,6.36,0,0,0,2.53,2.13,12.22,12.22,0,0,0,2.48.82,13.86,13.86,0,0,0,3,.32h.65c0-.14,0-.8,0-2S117.91,110,117.91,108.44Z" fill="#054911"/></g></svg>