<svg xmlns="http://www.w3.org/2000/svg" viewBox="0 0 293.39 281.48"><g id="yellowFlower"><circle id="yellowFlowerBase" cx="141.33" cy="147.38" r="105.68" fill="#fff" stroke="#0024ae" stroke-miterlimit="10" stroke-width="4"/><path id="yellowFlowerPetal1" d="M72.53,147.38c19.68-3.66,43.56,5.64,56.49-9.18C96.69,124.1,85,125.35,72.53,147.38Z" fill="#fffeab" stroke="#0024ae" stroke-miterlimit="10" stroke-width="4"/><path id="yellowFlowerPetal2" d="M122.78,85.88q-33.12,59,21.92,48C172.65,112.18,163.67,96.45,122.78,85.88Z" fill="#ffc0f9" stroke="#0024ae" stroke-miterlimit="10" stroke-width="4"/><path id="yellowFlowerPetal3" d="M201.28,95.21c-16.53,11.28-26.9,34.72-46.52,33.33C167.74,95.74,176.91,88.39,201.28,95.21Z" fill="#fffeab" stroke="#0024ae" stroke-miterlimit="10" stroke-width="4"/><path id="yellowFlowerPetal4" d="M86.5,131.52c-2.39-18.35,4.81-27.48,23.84-25.24a131.41,131.41,0,0,0,1.24,25.24A31.93,31.93,0,0,0,86.5,131.52Z" fill="#fffeab" stroke="#0024ae" stroke-miterlimit="10" stroke-width="4"/><path id="yellowFlowerPetal5" d="M146.75,91.85c12.11-14,23.72-14.69,34.7,1a131,131,0,0,0-18,17.72A32,32,0,0,0,146.75,91.85Z" fill="#fffeab" stroke="#0024ae" stroke-miterlimit="10" stroke-width="4"/><path id="yellowFlowerPetal6" d="M97.22,106.41C97.23,95.69,109,88,117.78,94.17c-.87,4.78-6.22,9.18-6.16,14.13A18.55,18.55,0,0,0,97.22,106.41Z" fill="#fffeab" stroke="#0024ae" stroke-miterlimit="10" stroke-width="4"/><path id="yellowFlowerPetal7" d="M133.82,87.37c3.26-10.21,16.86-14,23.31-5.42-2.28,4.28-8.72,6.86-10.16,11.59A18.51,18.51,0,0,0,133.82,87.37Z" fill="#fffeab" stroke="#0024ae" stroke-miterlimit="10" stroke-width="4"/><path id="yellowFlowerSteam1" d="M117.78,145.29c16-7.12,17.81-7.12,29-3.48.5-5.46,18.13-14.85,18.13-14.85" fill="none" stroke="#0024ae" stroke-miterlimit="10" stroke-width="4"/><path id="yellowFlowerSteam2" d="M146.75,141.81c42.3,43.84-29,38.8-29,77.61" fill="none" stroke="#0024ae" stroke-miterlimit="10" stroke-width="4"/><path id="yellowFlowerSteam3" d="M122.78,85.88c16.83,16.15,24.61,32.15,21.92,48" fill="none" stroke="#0024ae" stroke-miterlimit="10" stroke-width="4"/><path id="yellowFlowerSteam4" d="M92.75,108.86c11,2.73,15.5,10.55,18.83,22.66" fill="none" stroke="#0024ae" stroke-miterlimit="10" stroke-width="4"/><path id="yellowFlowerSteam5" d="M164.1,81.23c5.37,7.77,3.44,18.17-.66,29.34" fill="none" stroke="#0024ae" stroke-miterlimit="10" stroke-width="4"/><line id="yellowFlowerSteam6" x1="171.91" y1="162.47" x2="158.82" y2="171.32" fill="none" stroke="#0024ae" stroke-miterlimit="10" stroke-width="4"/><path id="yellowFlowerLeaf" d="M171.91,162.47c4-20.66,24.66-23.83,43.84-24.3C206.69,150.73,189.55,171.32,171.91,162.47Z" fill="#cfffed" stroke="#0024ae" stroke-miterlimit="10" stroke-width="4"/></g></svg>